<?xml version="1.0" encoding="UTF-8"?>
<svg width="90px" height="82px" viewBox="0 0 90 82" version="1.1" xmlns="http://www.w3.org/2000/svg" xmlns:xlink="http://www.w3.org/1999/xlink">
    <title>Path</title>
    <g id="icons" stroke="none" stroke-width="1" fill="none" fill-rule="evenodd">
        <g id="activity-copy" transform="translate(3.000000, 3.000000)" fill="#000000" fill-rule="nonzero">
            <path d="M26.5539501,-0.948683298 C27.4453865,-3.62299248 31.1638713,-3.68242157 32.1809543,-1.12697058 L32.2460499,-0.948683298 L54.599,66.112 L64.3539501,36.8513167 C64.7428474,35.6846249 65.8011999,34.8795985 67.0165794,34.8055749 L67.2,34.8 L84,34.8 C85.6568542,34.8 87,36.1431458 87,37.8 C87,39.3976809 85.75108,40.7036609 84.1762728,40.7949073 L84,40.8 L69.362,40.8 L57.4460499,76.5486833 C56.5546135,79.2229925 52.8361287,79.2824216 51.8190457,76.7269706 L51.7539501,76.5486833 L29.4,9.488 L19.6460499,38.7486833 C19.2571526,39.9153751 18.1988001,40.7204015 16.9834206,40.7944251 L16.8,40.8 L0,40.8 C-1.65685425,40.8 -3,39.4568542 -3,37.8 C-3,36.2023191 -1.75108004,34.8963391 -0.176272788,34.8050927 L0,34.8 L14.637,34.8 L26.5539501,-0.948683298 Z" id="Path"></path>
        </g>
    </g>
</svg>