<?xml version="1.0" encoding="UTF-8"?>
<svg width="81px" height="90px" viewBox="0 0 81 90" version="1.1" xmlns="http://www.w3.org/2000/svg" xmlns:xlink="http://www.w3.org/1999/xlink">
    <title>Combined Shape</title>
    <g id="icons" stroke="none" stroke-width="1" fill="none" fill-rule="evenodd">
        <g id="Group-4-Copy" fill="#000000" fill-rule="nonzero">
            <path d="M34.6851852,1.51341674 C38.1802714,-0.504472245 42.4863952,-0.504472245 45.9698983,1.50676352 L45.9698983,1.50676352 L75.0185169,18.1060084 C76.4601237,18.9383193 77.673461,20.0618101 78.6015581,21.3781378 C78.8089465,21.5743011 78.9928038,21.8036466 79.1434884,22.0641371 C79.2752842,22.2919742 79.3737742,22.5299312 79.4404644,22.772369 C80.2320386,24.3287397 80.6648139,26.0733827 80.6666667,27.8803818 L80.6666667,27.8803818 L80.6666667,61.0686441 C80.6625298,65.1002832 78.5100218,68.824122 75.0069353,70.8465927 L75.0069353,70.8465927 L45.9814815,87.4325321 C44.7081294,88.1677023 43.3271253,88.6350306 41.9174702,88.8348387 C41.4581257,89.1207303 40.9150659,89.2863078 40.3333333,89.2863078 C39.7520175,89.2863078 39.209319,89.1209674 38.7496992,88.8347482 C37.3426687,88.637194 35.9651853,88.1715187 34.6967684,87.4391853 L34.6967684,87.4391853 L5.64814973,70.8399404 C2.15664483,68.824122 0.00413686267,65.1002832 -1.42108547e-13,61.065567 L-1.42108547e-13,61.065567 L-1.42108547e-13,27.8773047 C0.00185472911,26.0697518 0.435554635,24.3240699 1.22815774,22.766449 C1.29456299,22.5259015 1.39249859,22.2900447 1.52317823,22.0641371 C1.67312544,21.8049214 1.85592135,21.5765466 2.06326125,21.3812306 C2.99119604,20.0636712 4.205349,18.9390086 5.64814973,18.1060084 L5.64814973,18.1060084 Z M5.999,28.1181673 L5.99999842,61.0624899 C6.00193726,62.9527338 7.01114591,64.6986648 8.63656496,65.6371339 L8.63656496,65.6371339 L37.333,82.0351673 L37.333,46.2441673 L5.999,28.1181673 Z M74.666,28.1181673 L43.333,46.2441673 L43.333,82.0351673 L72.0185201,65.6437862 C73.5843468,64.739757 74.5757854,63.10304 74.6607342,61.310864 L74.6666682,61.065567 L74.666,28.1181673 Z M42.9814815,6.70956916 C41.3428017,5.76347695 39.323865,5.76347695 37.673602,6.71622237 L37.673602,6.71622237 L9.154,23.0121673 L40.333,41.048 L71.512,23.0121673 Z" id="Combined-Shape"></path>
        </g>
    </g>
</svg>