<?xml version="1.0" encoding="UTF-8"?>
<svg width="90px" height="90px" viewBox="0 0 90 90" version="1.1" xmlns="http://www.w3.org/2000/svg" xmlns:xlink="http://www.w3.org/1999/xlink">
    <title>Combined Shape</title>
    <g id="icons" stroke="none" stroke-width="1" fill="none" fill-rule="evenodd">
        <path d="M32.8065301,4.68471731 C33.3982405,6.23231052 32.6233445,7.96655879 31.0757512,8.55826923 C16.0983148,14.2847776 6,28.6951256 6,45 C6,66.5391052 23.4608948,84 45,84 C61.229172,84 75.5864137,73.9952807 81.366441,59.1195806 C81.9665136,57.5752106 83.7049279,56.8097063 85.249298,57.409779 C86.793668,58.0098517 87.5591723,59.748266 86.9590996,61.292636 C80.2898893,78.4567714 63.7248147,90 45,90 C20.1471863,90 0,69.8528137 0,45 C0,26.1877555 11.6511407,9.56151695 28.9329782,2.95393843 C30.4805714,2.362228 32.2148197,3.13712409 32.8065301,4.68471731 Z M45,48 C43.4023191,48 42.0963391,46.75108 42.0050927,45.1762728 L42,45 L42,3 C42,1.34314575 43.3431458,-1.13686838e-13 45,-1.13686838e-13 C69.8524801,0 89.9994591,20.1466454 90,44.9989992 L90,45 C90,46.5976809 88.75108,47.9036609 87.1762728,47.9949073 L87,48 L87,48 L45,48 Z M48.0008005,6.11372981 L48,41.999 L83.8863463,42.0001992 C82.4299029,22.8531546 67.1477106,7.5706544 48.0008005,6.11372981 Z" id="Combined-Shape" fill="#000000" fill-rule="nonzero"></path>
    </g>
</svg>