<?xml version="1.0" encoding="UTF-8"?>
<svg width="90px" height="90px" viewBox="0 0 90 90" version="1.1" xmlns="http://www.w3.org/2000/svg" xmlns:xlink="http://www.w3.org/1999/xlink">
    <title>noun_Ungroup_204138</title>
    <g id="icons" stroke="none" stroke-width="1" fill="none" fill-rule="evenodd">
        <g id="noun_Ungroup_204138" fill="#000000" fill-rule="nonzero">
            <path d="M52.5,70 L5,70 L5,5 L70,5 L70,52.5 C70,53.9 71.1,55 72.5,55 C73.9,55 75,53.9 75,52.5 L75,2.5 C75,1.1 73.9,0 72.5,0 L2.5,0 C1.1,0 0,1.1 0,2.5 L0,72.5 C0,73.9 1.1,75 2.5,75 L52.5,75 C53.9,75 55,73.9 55,72.5 C55,71.1 53.9,70 52.5,70 Z" id="Path"></path>
            <path d="M32.5,10 L12.5,10 C11.1,10 10,11.1 10,12.5 L10,32.5 C10,33.9 11.1,35 12.5,35 L32.5,35 C33.9,35 35,33.9 35,32.5 L35,12.5 C35,11.1 33.9,10 32.5,10 Z M30,30 L15,30 L15,15 L30,15 L30,30 Z" id="Shape"></path>
            <path d="M42.5,35 L62.5,35 C63.9,35 65,33.9 65,32.5 L65,12.5 C65,11.1 63.9,10 62.5,10 L42.5,10 C41.1,10 40,11.1 40,12.5 L40,32.5 C40,33.9 41.1,35 42.5,35 Z M45,15 L60,15 L60,30 L45,30 L45,15 Z" id="Shape"></path>
            <path d="M32.5,40 L12.5,40 C11.1,40 10,41.1 10,42.5 L10,62.5 C10,63.9 11.1,65 12.5,65 L32.5,65 C33.9,65 35,63.9 35,62.5 L35,42.5 C35,41.1 33.9,40 32.5,40 Z M30,60 L15,60 L15,45 L30,45 L30,60 Z" id="Shape"></path>
            <path d="M87.5,65 L67.5,65 C66.1,65 65,66.1 65,67.5 L65,87.5 C65,88.9 66.1,90 67.5,90 L87.5,90 C88.9,90 90,88.9 90,87.5 L90,67.5 C90,66.1 88.9,65 87.5,65 Z M85,85 L70,85 L70,70 L85,70 L85,85 Z" id="Shape"></path>
            <circle id="Oval" cx="62.5" cy="62.5" r="2.5"></circle>
            <circle id="Oval" cx="62.5" cy="52.5" r="2.5"></circle>
            <circle id="Oval" cx="62.5" cy="42.5" r="2.5"></circle>
            <circle id="Oval" cx="52.5" cy="42.5" r="2.5"></circle>
            <circle id="Oval" cx="42.5" cy="42.5" r="2.5"></circle>
            <circle id="Oval" cx="42.5" cy="52.5" r="2.5"></circle>
            <circle id="Oval" cx="42.5" cy="62.5" r="2.5"></circle>
            <circle id="Oval" cx="52.5" cy="62.5" r="2.5"></circle>
        </g>
    </g>
</svg>