<?xml version="1.0" encoding="UTF-8"?>
<svg width="90px" height="90px" viewBox="0 0 90 90" version="1.1" xmlns="http://www.w3.org/2000/svg" xmlns:xlink="http://www.w3.org/1999/xlink">
    <title>Combined Shape</title>
    <g id="icons" stroke="none" stroke-width="1" fill="none" fill-rule="evenodd">
        <g id="globe" transform="translate(3.000000, 3.000000)" fill="#000000" fill-rule="nonzero">
            <path d="M42,-3 C66.8528137,-3 87,17.1471863 87,42 C87,66.8528137 66.8528137,87 42,87 C17.1471863,87 -3,66.8528137 -3,42 C-3,17.1471863 17.1471863,-3 42,-3 Z M22.3261391,45.0009188 L3.11372981,45.0008005 C4.47246562,62.8573131 17.8560361,77.3524762 35.1846873,80.4065356 C27.6317648,70.0946979 23.1542267,57.8144711 22.3261391,45.0009188 Z M80.8862702,45.0008005 L61.6738609,45.0009188 C60.8457733,57.8144711 56.3682352,70.0946979 48.815571,80.4057885 C66.1439639,77.3524762 79.5275344,62.8573131 80.8862702,45.0008005 Z M55.6601137,45.0008576 L28.3398863,45.0008576 C29.2340663,57.5973207 34.001009,69.6099563 41.9811275,79.3897972 L41.9811275,79.3897972 L42,79.411 L42.4543063,78.8499516 C50.1723862,69.1695299 54.7823184,57.3665076 55.6601137,45.0008576 Z M35.184429,3.59421153 L35.0579467,3.61601813 C17.7904906,6.71831899 4.46865277,21.1867862 3.11365375,39.0001992 L22.3260745,39.0000808 C23.1539939,26.1861675 27.6315684,13.9055702 35.184429,3.59421153 Z M42,4.588 L41.5458178,5.14989272 C33.8274279,14.8306386 29.2174053,26.6341457 28.339806,39.0002734 L55.6601847,39.0001416 C54.7661858,26.4033146 49.999202,14.3903023 42.0188725,4.61020276 L42.0188725,4.61020276 L42,4.588 Z M48.8153127,3.59346439 L49.107272,3.99554695 C56.4837179,14.2235307 60.8567211,26.3520053 61.6739255,39.0000808 L80.8863463,39.0001992 C79.5280339,21.1432279 66.1442873,6.64758084 48.8153127,3.59346439 Z" id="Combined-Shape"></path>
        </g>
    </g>
</svg>