<?xml version="1.0" encoding="UTF-8"?>
<svg width="90px" height="90px" viewBox="0 0 90 90" version="1.1" xmlns="http://www.w3.org/2000/svg" xmlns:xlink="http://www.w3.org/1999/xlink">
    <title>Combined Shape</title>
    <g id="icons" stroke="none" stroke-width="1" fill="none" fill-rule="evenodd">
        <path d="M36,51 C37.6568542,51 39,52.3431458 39,54 L39,54 L39,87 C39,88.6568542 37.6568542,90 36,90 L36,90 L3,90 C1.34314575,90 0,88.6568542 0,87 L0,87 L0,54 C0,52.3431458 1.34314575,51 3,51 L3,51 Z M87,51 C88.6568542,51 90,52.3431458 90,54 L90,54 L90,87 C90,88.6568542 88.6568542,90 87,90 L87,90 L54,90 C52.3431458,90 51,88.6568542 51,87 L51,87 L51,54 C51,52.3431458 52.3431458,51 54,51 L54,51 Z M33,57 L6,57 L6,84 L33,84 L33,57 Z M84,57 L57,57 L57,84 L84,84 L84,57 Z M36,0 C37.6568542,0 39,1.34314575 39,3 L39,3 L39,36 C39,37.6568542 37.6568542,39 36,39 L36,39 L3,39 C1.34314575,39 0,37.6568542 0,36 L0,36 L0,3 C0,1.34314575 1.34314575,0 3,0 L3,0 Z M87,0 C88.6568542,0 90,1.34314575 90,3 L90,3 L90,36 C90,37.6568542 88.6568542,39 87,39 L87,39 L54,39 C52.3431458,39 51,37.6568542 51,36 L51,36 L51,3 C51,1.34314575 52.3431458,0 54,0 L54,0 Z M33,6 L6,6 L6,33 L33,33 L33,6 Z M84,6 L57,6 L57,33 L84,33 L84,6 Z" id="Combined-Shape" fill="#000000" fill-rule="nonzero"></path>
    </g>
</svg>