<?xml version="1.0" encoding="UTF-8"?>
<svg width="90px" height="74px" viewBox="0 0 90 74" version="1.1" xmlns="http://www.w3.org/2000/svg" xmlns:xlink="http://www.w3.org/1999/xlink">
    <title>Combined Shape</title>
    <g id="icons" stroke="none" stroke-width="1" fill="none" fill-rule="evenodd">
        <path d="M79,0 C85.0751322,0 90,4.92486775 90,11 L90,11 L90,63 C90,69.0751322 85.0751322,74 79,74 L79,74 L11,74 C4.92486775,74 0,69.0751322 0,63 L0,63 L0,11 C0,4.92486775 4.92486775,0 11,0 L11,0 Z M84,17.716 L46.7045722,43.4686907 C45.7355943,44.1377469 44.4711812,44.1749166 43.4693772,43.5802001 L43.2954278,43.4686907 L6,17.717 L6,63 C6,65.6887547 8.12230671,67.8818181 10.7831104,67.9953805 L11,68 L79,68 C81.7614237,68 84,65.7614237 84,63 L84,63 L84,17.716 Z M79,6 L11,6 C8.42539054,6 6.30527874,7.94593577 6.03020477,10.4472671 L45,37.355 L83.9697952,10.4472671 C83.6947213,7.94593577 81.5746095,6 79,6 L79,6 Z" id="Combined-Shape" fill="#000000" fill-rule="nonzero"></path>
    </g>
</svg>