<?xml version="1.0" encoding="UTF-8"?>
<svg width="75px" height="90px" viewBox="0 0 75 90" version="1.1" xmlns="http://www.w3.org/2000/svg" xmlns:xlink="http://www.w3.org/1999/xlink">
    <title>Combined Shape</title>
    <g id="icons" stroke="none" stroke-width="1" fill="none" fill-rule="evenodd">
        <g id="map-pin-copy" fill="#000000" fill-rule="nonzero">
            <path d="M37.3636364,5.12058079e-07 C57.9990028,5.12058079e-07 74.7272727,16.7282701 74.7272727,37.3636364 C74.7272727,49.9841319 67.9393862,62.4285907 56.7233126,74.2677796 C52.8610631,78.3445986 48.7318898,82.0608547 44.6017349,85.3496818 C43.1543761,86.5022082 41.8082505,87.5204315 40.5966705,88.3954615 L40.5966705,88.3954615 L40.3819695,88.5500636 L39.6482898,89.0704151 L39.027737,89.4961514 C38.0200387,90.1679502 36.707234,90.1679502 35.6995357,89.4961514 C35.6696494,89.4762271 35.6374106,89.4545961 35.6028528,89.4312675 L35.6028528,89.4312675 L34.9147321,88.9551444 L34.1306022,88.3954615 L33.1972104,87.7124791 C32.2396324,87.0029259 31.2110569,86.2140766 30.1255378,85.3496818 C25.995383,82.0608547 21.8662096,78.3445986 18.0039601,74.2677796 C6.78788653,62.4285907 2.4158453e-13,49.9841319 2.4158453e-13,37.3636364 C2.4158453e-13,16.7282701 16.7282699,5.12058079e-07 37.3636364,5.12058079e-07 Z M37.3636364,6.00000051 C20.0419784,6.00000051 6,20.0419786 6,37.3636364 C6,48.1295044 12.0984771,59.3100459 22.3596762,70.1413118 C26.0144722,73.999152 29.9392761,77.5314756 33.8630985,80.6560009 C34.5488652,81.2020744 35.2096027,81.7155393 35.8410857,82.1951765 L35.8410857,82.1951765 L36.7658411,82.8891093 L37.363,83.327 L37.9614316,82.8891093 C38.4123107,82.5549807 38.8808338,82.2014811 39.3652185,81.829125 L39.3652185,81.829125 L40.3546082,81.0594229 L40.8641742,80.6560009 C44.7879966,77.5314756 48.7128005,73.999152 52.3675965,70.1413118 C62.6287956,59.3100459 68.7272727,48.1295044 68.7272727,37.3636364 C68.7272727,20.0419786 54.6852943,6.00000051 37.3636364,6.00000051 Z M37.3636364,22.9090909 C45.3466614,22.9090909 51.8181818,29.3806113 51.8181818,37.3636364 C51.8181818,45.3466614 45.3466614,51.8181818 37.3636364,51.8181818 C29.3806113,51.8181818 22.9090909,45.3466614 22.9090909,37.3636364 C22.9090909,29.3806113 29.3806113,22.9090909 37.3636364,22.9090909 Z M37.3636364,28.9090909 C32.6943198,28.9090909 28.9090909,32.6943198 28.9090909,37.3636364 C28.9090909,42.0329529 32.6943198,45.8181818 37.3636364,45.8181818 C42.0329529,45.8181818 45.8181818,42.0329529 45.8181818,37.3636364 C45.8181818,32.6943198 42.0329529,28.9090909 37.3636364,28.9090909 Z" id="Combined-Shape"></path>
        </g>
    </g>
</svg>