<svg enable-background="new 0 0 170.8 169.8" viewBox="0 0 170.8 169.8" xmlns="http://www.w3.org/2000/svg"><path d="m109.3 84.7 58.1-58.1c3.4-3.4 3.4-8.8 0-12.2l-11.9-11.9c-1.6-1.6-3.8-2.5-6.1-2.5s-4.5.9-6.1 2.5l-58.1 58.1-58.1-58.1c-1.6-1.6-3.8-2.5-6.1-2.5s-4.5.9-6.1 2.5l-11.9 12c-1.6 1.6-2.5 3.8-2.5 6.1s.9 4.4 2.5 6l58.1 58.1-58.1 58.2c-1.6 1.6-2.5 3.8-2.5 6.1s.9 4.5 2.5 6.1l12 11.9c1.6 1.6 3.8 2.5 6.1 2.5s4.5-.9 6.1-2.5l58.1-58.1 58.1 58.1c1.6 1.6 3.8 2.5 6.1 2.5s4.5-.9 6.1-2.5l11.9-11.9c3.4-3.4 3.4-8.8 0-12.2z" fill="#AEB3BD"/></svg>