<?xml version="1.0" encoding="UTF-8"?>
<svg width="74px" height="90px" viewBox="0 0 74 90" version="1.1" xmlns="http://www.w3.org/2000/svg" xmlns:xlink="http://www.w3.org/1999/xlink">
    <title>Path</title>
    <g id="icons" stroke="none" stroke-width="1" fill="none" fill-rule="evenodd">
        <g id="shield-copy" transform="translate(3.000000, 3.000000)" fill="#000000" fill-rule="nonzero">
            <path d="M32.5466297,-2.80898753 L-1.05337032,9.79101247 C-2.2242815,10.2301042 -3,11.3494663 -3,12.6 L-3,42 C-3,54.0583454 3.73727901,65.0064238 14.8244862,74.7077301 C18.6298201,78.0373973 22.6946523,80.9844006 26.7600032,83.5252449 C28.0064824,84.3042944 29.1769424,84.9968069 30.2496291,85.6003693 L31.1154232,86.0800236 L31.9279671,86.5141765 L32.2583592,86.6832816 C33.1029417,87.1055728 34.0970583,87.1055728 34.9416408,86.6832816 L35.2720329,86.5141765 L35.7214478,86.2763945 L36.4966976,85.8535859 C37.6901918,85.1929016 39.0154492,84.4155872 40.4399968,83.5252449 C44.5053477,80.9844006 48.5701799,78.0373973 52.3755138,74.7077301 C63.462721,65.0064238 70.2,54.0583454 70.2,42 L70.2,12.6 C70.2,11.3494663 69.4242815,10.2301042 68.2533703,9.79101247 L34.6533703,-2.80898753 C33.9742149,-3.06367082 33.2257851,-3.06367082 32.5466297,-2.80898753 Z M33.6,3.203 L64.2,14.678 L64.2,42 C64.2,51.9916546 58.337279,61.5185762 48.4244862,70.1922699 C44.8798201,73.2938527 41.0696523,76.0562244 37.2600032,78.4372551 L36.7652538,78.7442799 C35.9485112,79.2474849 35.1715064,79.7080994 34.4423331,80.1250002 L33.6,80.599 L32.7576669,80.1250002 C31.8826589,79.6247193 30.9387736,79.0614906 29.9399968,78.4372551 C26.1303477,76.0562244 22.3201799,73.2938527 18.7755138,70.1922699 L18.3138249,69.7850671 C8.68094228,61.2207464 3,51.835535 3,42 L3,14.678 L33.6,3.203 Z" id="Path"></path>
        </g>
    </g>
</svg>