<?xml version="1.0" encoding="UTF-8"?>
<svg width="90px" height="90px" viewBox="0 0 90 90" version="1.1" xmlns="http://www.w3.org/2000/svg" xmlns:xlink="http://www.w3.org/1999/xlink">
    <title>smile</title>
    <g id="icons" stroke="none" stroke-width="1" fill="none" fill-rule="evenodd">
        <g id="smile" transform="translate(3.000000, 3.000000)">
            <path d="M42,-3 C17.1471863,-3 -3,17.1471863 -3,42 C-3,66.8528137 17.1471863,87 42,87 C66.8528137,87 87,66.8528137 87,42 C87,17.1471863 66.8528137,-3 42,-3 Z M42,3 C63.5391052,3 81,20.4608948 81,42 C81,63.5391052 63.5391052,81 42,81 C20.4608948,81 3,63.5391052 3,42 C3,20.4608948 20.4608948,3 42,3 Z" id="Oval" fill="#000000" fill-rule="nonzero"></path>
            <path d="M56.4,48.6 C57.3941125,47.2745166 59.2745166,47.0058875 60.6,48 C61.9254834,48.9941125 62.1941125,50.8745166 61.2,52.2 L61.1142387,52.312322 L60.9075116,52.5706979 L60.6540489,52.8714475 L60.3540949,53.2114485 L60.0078939,53.5875785 C59.9463534,53.6531041 59.8828961,53.720005 59.8175271,53.7882161 C58.7565152,54.8953589 57.5171356,55.9970297 56.1020151,57.0262083 C52.0144274,59.9989993 47.2868006,61.8 42,61.8 C36.7131994,61.8 31.9855726,59.9989993 27.8979849,57.0262083 C26.4828644,55.9970297 25.2434848,54.8953589 24.1824729,53.7882161 L23.81324,53.3951925 C23.7555381,53.3324825 23.6997582,53.2712128 23.6459051,53.2114485 L23.3459511,52.8714475 L23.0924884,52.5706979 L22.8857613,52.312322 C22.855215,52.272964 22.8266262,52.2355016 22.8,52.2 C21.8058875,50.8745166 22.0745166,48.9941125 23.4,48 C24.6745033,47.0441225 26.4620619,47.2557208 27.4814435,48.4517615 L27.7116951,48.7418815 L27.8762999,48.9379754 L28.2207829,49.3242293 L28.5144021,49.6367839 C29.340109,50.4983911 30.3155731,51.3654703 31.4270151,52.1737917 C34.5581774,54.4510007 38.0993006,55.8 42,55.8 C45.9006994,55.8 49.4418226,54.4510007 52.5729849,52.1737917 C53.6844269,51.3654703 54.659891,50.4983911 55.4855979,49.6367839 L55.7792171,49.3242293 L56.0217894,49.0549898 L56.2125697,48.8334243 L56.4,48.6 Z" id="Path" fill="#000000" fill-rule="nonzero"></path>
            <line x1="29.4" y1="29.4" x2="29.442" y2="29.4" id="Path" stroke="#000000" stroke-width="8.4" stroke-linecap="round" stroke-linejoin="round"></line>
            <line x1="54.6" y1="29.4" x2="54.642" y2="29.4" id="Path" stroke="#000000" stroke-width="8.4" stroke-linecap="round" stroke-linejoin="round"></line>
        </g>
    </g>
</svg>