<?xml version="1.0" encoding="UTF-8"?>
<svg width="90px" height="60px" viewBox="0 0 90 60" version="1.1" xmlns="http://www.w3.org/2000/svg" xmlns:xlink="http://www.w3.org/1999/xlink">
    <title>Combined Shape</title>
    <g id="icons" stroke="none" stroke-width="1" fill="none" fill-rule="evenodd">
        <g id="toggle-right-copy" fill="#000000" fill-rule="nonzero">
            <path d="M60.2727273,-1.42108547e-14 C76.6906467,-1.42108547e-14 90,13.3093533 90,29.7272727 C90,46.1451921 76.6906467,59.4545455 60.2727273,59.4545455 L60.2727273,59.4545455 L29.7272727,59.4545455 C13.3093533,59.4545455 0,46.1451921 0,29.7272727 C0,13.3093533 13.3093533,-1.42108547e-14 29.7272727,-1.42108547e-14 L29.7272727,-1.42108547e-14 Z M60.2727273,6 L29.7272727,6 C16.6230618,6 6,16.6230618 6,29.7272727 C6,42.8314836 16.6230618,53.4545455 29.7272727,53.4545455 L29.7272727,53.4545455 L60.2727273,53.4545455 C73.3769382,53.4545455 84,42.8314836 84,29.7272727 C84,16.6230618 73.3769382,6 60.2727273,6 L60.2727273,6 Z M60.2727273,15.2727273 C68.2557523,15.2727273 74.7272727,21.7442477 74.7272727,29.7272727 C74.7272727,37.7102977 68.2557523,44.1818182 60.2727273,44.1818182 C52.2897023,44.1818182 45.8181818,37.7102977 45.8181818,29.7272727 C45.8181818,21.7442477 52.2897023,15.2727273 60.2727273,15.2727273 Z M60.2727273,21.2727273 C55.6034108,21.2727273 51.8181818,25.0579562 51.8181818,29.7272727 C51.8181818,34.3965892 55.6034108,38.1818182 60.2727273,38.1818182 C64.9420438,38.1818182 68.7272727,34.3965892 68.7272727,29.7272727 C68.7272727,25.0579562 64.9420438,21.2727273 60.2727273,21.2727273 Z" id="Combined-Shape"></path>
        </g>
    </g>
</svg>