<?xml version="1.0" encoding="UTF-8"?>
<svg width="90px" height="90px" viewBox="0 0 90 90" version="1.1" xmlns="http://www.w3.org/2000/svg" xmlns:xlink="http://www.w3.org/1999/xlink">
    <title>Combined Shape</title>
    <g id="icons" stroke="none" stroke-width="1" fill="none" fill-rule="evenodd">
        <path d="M29.6725882,22.9888126 C38.3668411,22.9888126 44.9117474,28.290708 45.0824765,36.2570915 L45.0858961,36.5771617 L45.0858961,48.7080493 C45.0858961,51.7656655 43.6101358,54.6319044 40.8154183,57.3603023 L40.664,57.505 L46.528,61.365 L52.33,57.657 L52.2745514,57.5989464 C50.4796892,55.6124289 49.4925491,53.3724474 49.4134035,50.9009582 L49.4082378,50.577279 L49.4082378,40.6520073 C49.4082378,33.6145193 54.7372182,28.9888126 62.1725882,28.9888126 C69.5374907,28.9888126 75.1366351,33.5249108 75.3021331,40.3406393 L75.3059008,40.6520073 L75.3059008,50.577279 C75.3059008,52.9730665 74.2822714,55.2103356 72.3495765,57.3278462 L72.075,57.621 L81.8607944,63.7610242 C82.03329,63.8692541 82.1909879,63.992152 82.333285,64.1270832 C82.3816399,64.1538603 82.430631,64.1817792 82.4791188,64.2112349 C83.8951603,65.0714631 84.345736,66.9167442 83.4855078,68.3327857 C75.3790136,81.6770734 60.9062713,90 45,90 C29.2246374,90 14.8542256,81.8141704 6.70690042,68.6466135 C5.83511851,67.2376556 6.27058567,65.3887507 7.67954355,64.5169688 L7.83783291,64.4254668 L7.83783291,64.4254668 L8.00726229,64.3409495 L8.00726229,64.3409495 L8.11995736,64.2639023 L18.671,57.494 L18.4908723,57.3135791 C16.102011,54.8680898 14.8026787,52.1005285 14.71591,49.0373742 L14.7112589,48.7080493 L14.7112589,36.5771617 C14.7112589,28.3648676 20.9187435,22.9888126 29.6725882,22.9888126 Z M29.6725882,28.9888126 C24.160095,28.9888126 20.8359204,31.7793375 20.7146933,36.3183746 L20.7112589,36.5771617 L20.7112589,48.7080493 C20.7112589,50.9507169 22.1599593,53.1073664 25.4436428,55.261133 C27.2056897,56.4168588 27.2464211,58.9609099 25.5795119,60.1839961 L25.4182368,60.2947078 L13.4697477,67.95961 C20.7291654,77.9214849 32.3398797,84 45,84 C49.6154699,84 54.0910071,83.1920125 58.2667848,81.6829806 C57.9653782,77.9903588 56.092303,74.9797436 52.5238642,72.4951464 L33.9607612,60.2747994 C32.1993301,59.1142311 32.1540488,56.5462553 33.8734687,55.3243088 C37.3691656,52.840009 38.9866383,50.6492127 39.0814569,48.87332 L39.0858961,48.7080493 L39.0858961,36.5771617 C39.0858961,32.0301205 35.397186,28.9888126 29.6725882,28.9888126 Z M62.1725882,34.9888126 C57.9725186,34.9888126 55.5188654,37.0376361 55.4118882,40.419377 L55.4082378,40.6520073 L55.4082378,50.577279 C55.4082378,52.2073992 56.4857253,53.8150775 59.0252079,55.4845086 C60.7867225,56.6425112 60.8240128,59.1878447 59.1544602,60.4086068 L58.9929397,60.51909 L52.016,64.978 L55.8862769,67.5264416 C60.2963502,70.5956352 63.0233094,74.493338 63.9522172,79.0942511 C68.973673,76.3016564 73.3599965,72.4059739 76.7583065,67.6436646 L65.426095,60.5325495 C63.6163045,59.3970224 63.5398496,56.7873654 65.2800582,55.5478343 C67.9964956,53.6129462 69.2203839,51.9608078 69.30156,50.7097777 L69.3059008,50.577279 L69.3059008,40.6520073 C69.3059008,37.2569216 66.561218,34.9888126 62.1725882,34.9888126 Z M45,0 C69.8528137,0 90,20.1471863 90,45 C90,48.820452 89.5232042,52.5807363 88.5899965,56.2171568 C88.1781468,57.8220075 86.543288,58.7891258 84.9384373,58.377276 C83.3335866,57.9654262 82.3664683,56.3305674 82.7783181,54.7257167 C83.5867346,51.5755686 84,48.3163213 84,45 C84,23.4608948 66.5391052,6 45,6 C23.4608948,6 6,23.4608948 6,45 C6,48.4968626 6.45949742,51.9299619 7.35688463,55.2379662 C7.79067369,56.8370262 6.8460349,58.484976 5.24697484,58.9187651 C3.64791479,59.3525541 1.99996498,58.4079153 1.56617592,56.8088553 C0.530191211,52.9899443 0,49.0286619 0,45 C0,20.1471863 20.1471863,0 45,0 Z" id="Combined-Shape" fill="#000000" fill-rule="nonzero"></path>
    </g>
</svg>