<?xml version="1.0" encoding="UTF-8"?>
<svg width="86px" height="80px" viewBox="0 0 86 80" version="1.1" xmlns="http://www.w3.org/2000/svg" xmlns:xlink="http://www.w3.org/1999/xlink">
    <title>Combined Shape</title>
    <g id="icons" stroke="none" stroke-width="1" fill="none" fill-rule="evenodd">
        <path d="M6.89384291,50.2772214 L10.8240432,54.8108211 C6.70038145,58.3856441 5.54861769,63.8557364 7.7097529,67.6034444 C10.2320615,71.9774772 15.9687211,74.36793 20.7444039,72.2432753 C24.2351552,70.6902741 26.3046485,67.5239713 26.9838294,62.3431812 L27.0333324,61.9406787 L27.3395269,59.2790016 L66.0363583,59.3436594 C67.4141943,57.7053369 69.8091299,57.239859 71.7275254,58.3474452 C73.8798422,59.5900859 74.6172804,62.3422427 73.3746397,64.4945595 C72.131999,66.6468764 69.3798422,67.3843145 67.2275254,66.1416739 C66.8439756,65.9202313 66.5053572,65.6508519 66.2148688,65.3454727 L32.5631499,65.2881334 L32.4938815,65.600784 C31.2081258,71.2839911 28.2106077,75.3594051 23.5211162,77.5704776 L23.1832753,77.7252372 C15.394246,81.1905004 6.4756142,77.4741271 2.51203673,70.6007343 C-1.08257606,64.3671774 0.617333064,55.9352222 6.60980561,50.5284292 L6.89384291,50.2772214 Z M42.5,12 C44.9852814,12 47,14.0147186 47,16.5 C47,16.9428852 46.9360198,17.370827 46.8167979,17.7750869 L63.593,46.947 L63.8983976,46.850663 C69.4630771,45.1225565 74.4912482,45.6807763 78.7508389,48.6364588 L79.0537852,48.8516578 C85.9493058,53.8645235 87.190148,63.4464718 83.2194039,70.315727 C79.6182917,76.5455314 71.4660497,79.2893446 63.7873934,76.8031076 L63.4278224,76.682728 L65.3889347,71.0122749 C70.5466532,72.7960592 75.8597739,71.0584697 78.0248167,67.3130177 C80.5516859,62.9416179 79.753549,56.7782986 75.5257026,53.7047633 C72.4353885,51.4581846 68.6585432,51.2491023 63.8322568,53.2513094 L63.458928,53.4096898 L61.0007508,54.4753562 L41.7083303,20.9305882 C39.6005834,20.5565084 38,18.7151724 38,16.5 C38,14.0147186 40.0147186,12 42.5,12 Z M42.5778794,0.379084227 C49.7736044,0.382836679 56.2259373,6.07097878 57.912121,13.9640087 L57.9876547,14.3355961 L52.0963421,15.4724496 C51.0622854,10.1138422 46.9009285,6.38133944 42.5747505,6.37908341 C37.5255726,6.37645035 32.58705,10.1493168 32.0392135,15.3475069 C31.6387764,19.1470867 33.3461284,22.5224719 37.4932338,25.7010549 L37.8170597,25.945177 L39.9690424,27.5411877 L20.5646314,61.0212979 C21.2945423,63.0337001 20.5001902,65.3405141 18.5817946,66.4481003 C16.4294778,67.690741 13.677321,66.9533028 12.4346803,64.800986 C11.1920396,62.6486692 11.9294778,59.8965123 14.0817946,58.6538716 C14.4653445,58.432429 14.8679431,58.2738666 15.2776534,58.1749858 L32.1531701,29.0604121 L31.917041,28.8440986 C27.6381171,24.888998 25.6074641,20.2553642 26.0373649,15.0886091 L26.0722595,14.7186505 C26.9657683,6.24052164 34.6435579,0.374946609 42.5778794,0.379084227 Z" id="Combined-Shape" fill="#000000" fill-rule="nonzero"></path>
    </g>
</svg>