<?xml version="1.0" encoding="UTF-8"?>
<svg width="29px" height="26px" viewBox="0 0 29 26" version="1.1" xmlns="http://www.w3.org/2000/svg" xmlns:xlink="http://www.w3.org/1999/xlink">
    <title>logo-yahoo-color</title>
    <defs>
        <path d="M0,6.33454545 L5.57818182,6.33454545 L8.81636364,14.6309091 L12.1018182,6.33454545 L17.5381818,6.33454545 L9.36,26 L3.9,26 L6.14545455,20.8 L0,6.33454545 Z M18.8618182,14.2054545 C20.7290909,14.2054545 22.2418182,15.7181818 22.2418182,17.5854545 C22.2418182,19.4527273 20.7290909,20.9654545 18.8618182,20.9654545 C16.9945455,20.9654545 15.4818182,19.4527273 15.4818182,17.5854545 C15.4818182,15.7181818 16.9945455,14.2054545 18.8618182,14.2054545 Z M23.3527273,12.9763636 L17.2781818,12.9763636 L22.6672727,1.33226763e-14 L28.7181818,1.33226763e-14 L23.3527273,12.9763636 Z" id="path-1"></path>
    </defs>
    <g id="Web" stroke="none" stroke-width="1" fill="none" fill-rule="evenodd">
        <g id="cs_features" transform="translate(-1237.000000, -778.000000)" fill-rule="nonzero">
            <g id="Delivery-1" transform="translate(0.000000, 472.000000)">
                <g id="Stats" transform="translate(1005.000000, 79.000000)">
                    <g id="5-Yahoo" transform="translate(170.000000, 190.000000)">
                        <g id="yahoo-logo" transform="translate(62.000000, 37.000000)">
                            <use fill="#FFFFFF" xlink:href="#path-1"></use>
                            <use fill="#5F01D1" xlink:href="#path-1"></use>
                        </g>
                    </g>
                </g>
            </g>
        </g>
    </g>
</svg>