<?xml version="1.0" encoding="UTF-8"?>
<svg width="33px" height="30px" viewBox="0 0 33 30" version="1.1" xmlns="http://www.w3.org/2000/svg" xmlns:xlink="http://www.w3.org/1999/xlink">
    <title>logo-outlook-color</title>
    <defs>
        <linearGradient x1="50.000064%" y1="1.23596286e-05%" x2="50.000064%" y2="99.9999262%" id="linearGradient-1">
            <stop stop-color="#35B8F1" offset="0%"></stop>
            <stop stop-color="#28A8EA" offset="100%"></stop>
        </linearGradient>
        <linearGradient x1="17.372029%" y1="-6.51030653%" x2="82.6280031%" y2="106.51036%" id="linearGradient-2">
            <stop stop-color="#1784D9" offset="0%"></stop>
            <stop stop-color="#107AD5" offset="50%"></stop>
            <stop stop-color="#0A63C9" offset="100%"></stop>
        </linearGradient>
    </defs>
    <g id="Web" stroke="none" stroke-width="1" fill="none" fill-rule="evenodd">
        <g id="cs_features" transform="translate(-1400.000000, -776.000000)" fill-rule="nonzero">
            <g id="Delivery-1" transform="translate(0.000000, 472.000000)">
                <g id="Stats" transform="translate(1005.000000, 79.000000)">
                    <g id="3-Hotmail" transform="translate(340.000000, 190.000000)">
                        <g id="logo-outlook-color" transform="translate(55.000000, 35.000000)">
                            <path d="M32.237412,15.743838 C32.2391373,15.4917606 32.1088908,15.2571479 31.8940141,15.1253345 L31.8902641,15.1253345 L31.8767606,15.1178345 L20.7061268,8.50542254 C20.6578873,8.47283451 20.6078345,8.44304577 20.5561796,8.41621479 C20.1248768,8.19369718 19.6125352,8.19369718 19.1812148,8.41621479 C19.1295599,8.44306338 19.079507,8.47283451 19.0312676,8.50542254 L7.86066901,15.1178345 L7.8471831,15.1253345 C7.50577465,15.3376408 7.40110915,15.7865317 7.61341549,16.1279401 C7.67596831,16.2285387 7.76213028,16.3123415 7.86441901,16.3720951 L19.0350528,22.984507 C19.0834507,23.0168134 19.1335035,23.0466021 19.185,23.0737324 C19.6163028,23.29625 20.1286444,23.29625 20.5599648,23.0737324 C20.6114613,23.0466021 20.6614965,23.016831 20.709912,22.984507 L31.8805458,16.3720951 C32.1036972,16.2419894 32.2399296,16.0021655 32.237412,15.743838 Z" id="Path" fill="#0A2767"></path>
                            <path d="M9.16290493,11.3288204 L16.4935387,11.3288204 L16.4935387,18.0484331 L9.16290493,18.0484331 L9.16290493,11.3288204 Z M30.7379754,4.49823944 L30.7379754,1.42443662 C30.755581,0.655915493 30.1472711,0.018415493 29.3787676,0 L10.3557042,0 C9.5871831,0.018415493 8.97887324,0.655915493 8.99647887,1.42443662 L8.99647887,4.49823944 L20.2420775,7.49705986 L30.7379754,4.49823944 Z" id="Shape" fill="#0364B8"></path>
                            <polygon id="Path" fill="#0078D4" points="8.99647887 4.49823944 16.4935387 4.49823944 16.4935387 11.2455986 8.99647887 11.2455986"></polygon>
                            <polygon id="Path" fill="#28A8EA" points="23.9906162 4.49823944 16.4935387 4.49823944 16.4935387 11.2455986 23.9906162 17.9929577 30.7379754 17.9929577 30.7379754 11.2455986"></polygon>
                            <polygon id="Path" fill="#0078D4" points="16.4935387 11.2455986 23.9905986 11.2455986 23.9905986 17.9929577 16.4935387 17.9929577"></polygon>
                            <polygon id="Path" fill="#0364B8" points="16.4935387 17.9929577 23.9905986 17.9929577 23.9905986 24.7403169 16.4935387 24.7403169"></polygon>
                            <polygon id="Path" fill="#14447D" points="9.16290493 18.0484331 16.4935387 18.0484331 16.4935387 24.1570423 9.16290493 24.1570423"></polygon>
                            <polygon id="Path" fill="#0078D4" points="23.9906162 17.9929577 30.7379754 17.9929577 30.7379754 24.7403169 23.9906162 24.7403169"></polygon>
                            <path d="M31.8940141,16.3308627 L31.8797711,16.3383627 L20.7091373,22.6208979 C20.6604049,22.6508803 20.6109331,22.6793662 20.5591901,22.7048592 C20.3694542,22.7952113 20.1633979,22.8462148 19.9534331,22.8548063 L19.343169,22.4979401 C19.2916021,22.4720599 19.2415317,22.4432746 19.1932218,22.4117254 L7.87265845,15.950757 L7.86741197,15.950757 L7.49705986,15.743838 L7.49705986,28.4618662 C7.50283451,29.3103873 8.19517606,29.993662 9.04369718,29.9883063 L30.7147183,29.9883063 C30.7274648,29.9883063 30.7387148,29.9822711 30.7522007,29.9822711 C30.9314261,29.9708099 31.1081162,29.9339437 31.2769894,29.8728169 C31.3499648,29.8419014 31.4204049,29.8052993 31.4876585,29.7633627 C31.5378873,29.7348768 31.6241021,29.6726585 31.6241021,29.6726585 C32.0081514,29.3884683 32.2354754,28.9396479 32.2373592,28.4618838 L32.2373592,15.743838 C32.2373592,15.9870951 32.1059155,16.2113908 31.8940141,16.3308627 Z" id="Path" fill="url(#linearGradient-1)"></path>
                            <path d="M31.6376232,15.6936092 L31.6376232,16.4733099 L19.9572007,24.5154049 L7.86441901,15.9560035 C7.86441901,15.9518662 7.86105634,15.9485035 7.85691901,15.9485035 L7.85691901,15.9485035 L6.74735915,15.2812676 L6.74735915,14.7189789 L7.2046831,14.7114789 L8.17179577,15.2662676 L8.19427817,15.2737676 L8.27674296,15.32625 C8.27674296,15.32625 19.6422887,21.8112148 19.6722887,21.8261972 L20.1071127,22.0810915 C20.1445951,22.0660915 20.1820775,22.0511092 20.2270599,22.0361092 C20.2495599,22.0211092 31.5101408,15.6860915 31.5101408,15.6860915 L31.6376232,15.6936092 Z" id="Path" fill="#0A2767" opacity="0.5"></path>
                            <path d="M31.8940141,16.3308627 L31.8797711,16.3391021 L20.7091373,22.6216373 C20.6604049,22.6516197 20.6109331,22.6801056 20.5591901,22.7055986 C20.1253697,22.9175352 19.6180458,22.9175352 19.1842254,22.7055986 C19.1328521,22.6801585 19.0828169,22.6521303 19.0342782,22.6216373 L7.86367958,16.3391021 L7.85019366,16.3308627 C7.63452465,16.2139261 7.49931338,15.9891549 7.49707746,15.743838 L7.49707746,28.4618662 C7.50244718,29.3102465 8.19454225,29.9936268 9.04290493,29.9883065 C9.04292254,29.9883065 9.04294014,29.9883065 9.04297535,29.9883065 L30.6914965,29.9883065 C31.5398768,29.9936796 32.2319894,29.3102993 32.2373944,28.4619366 C32.2373944,28.461919 32.2373944,28.4619014 32.2373944,28.4618662 L32.2373944,15.743838 C32.2371127,15.9870951 32.1059155,16.2113908 31.8940141,16.3308627 Z" id="Path" fill="#1490DF"></path>
                            <path d="M20.871831,22.5286796 L20.7046479,22.6223944 C20.6561972,22.6532394 20.6061444,22.6815317 20.5547007,22.7071127 C20.3705106,22.7975176 20.1702289,22.8505282 19.9654401,22.8630458 L24.2155282,27.8890845 L31.6293838,29.6756338 C31.8325352,29.5221831 31.9941197,29.3203873 32.0994542,29.0886092 L20.871831,22.5286796 Z" id="Path" fill="#000000" opacity="0.1"></path>
                            <path d="M21.6290317,22.1028521 L20.7046479,22.6223944 C20.6561972,22.6532394 20.6061444,22.6815317 20.5547007,22.7071127 C20.3705106,22.7975176 20.1702289,22.8505282 19.9654401,22.8630458 L21.9566549,28.3531514 L31.6316197,29.6733803 C32.0127641,29.3872183 32.2371479,28.9384683 32.2373768,28.4618486 L32.2373768,28.2976585 L21.6290317,22.1028521 Z" id="Path" fill="#000000" opacity="0.05"></path>
                            <path d="M9.06396127,29.9882771 L30.689243,29.9882771 C31.022007,29.9899472 31.3465493,29.8848415 31.6151232,29.6883803 L19.3424296,22.4994542 C19.2908627,22.4735739 19.2407923,22.4447887 19.1924824,22.4132394 L7.87191901,15.9522535 L7.86667254,15.9522535 L7.4970767,15.743838 L7.4970767,28.4183803 C7.49623239,29.2845775 8.19774648,29.9874296 9.06396127,29.9882771 C9.06394366,29.9882771 9.06394366,29.9882771 9.06396127,29.9882771 Z" id="Path" fill="#28A8EA"></path>
                            <path d="M17.9929577,7.3718662 L17.9929577,23.3631162 C17.9916197,23.9237852 17.6507042,24.4277465 17.1307923,24.6376232 C16.9697359,24.706831 16.7962852,24.742588 16.6209859,24.742588 L7.49705986,24.742588 L7.49705986,6.74735915 L8.99647887,6.74735915 L8.99647887,5.99765845 L16.6210035,5.99765845 C17.3783803,6.00052817 17.9913204,6.61447183 17.9929577,7.3718662 Z" id="Path" fill="#000000" opacity="0.1"></path>
                            <path d="M17.2433232,8.1215669 L17.2433232,24.1127993 C17.2451408,24.2939085 17.206743,24.473169 17.1307923,24.637588 C16.922588,25.1507746 16.4251056,25.4874648 15.8712852,25.49 L7.49705986,25.49 L7.49705986,6.74729579 L15.8712852,6.74729579 C16.0888204,6.74517606 16.3032042,6.79943662 16.4935387,6.90480634 C16.9531162,7.13633803 17.243081,7.60697183 17.2433232,8.1215669 Z" id="Path" fill="#000000" opacity="0.2"></path>
                            <path d="M17.243257,8.1215669 L17.243257,22.6133979 C17.2395951,23.3704401 16.6283275,23.9840493 15.8713028,23.9905986 L7.49705986,23.9905986 L7.49705986,6.74729579 L15.8712852,6.74729579 C16.0888204,6.74517606 16.3032042,6.79943662 16.4935387,6.90480634 C16.9531162,7.13633803 17.243081,7.60697183 17.243257,8.1215669 Z" id="Path" fill="#000000" opacity="0.2"></path>
                            <path d="M16.4935387,8.1215669 L16.4935387,22.6133979 C16.4927289,23.3716197 15.8797887,23.9869014 15.1215845,23.9905986 L7.49705986,23.9905986 L7.49705986,6.74735915 L15.1215669,6.74735915 C15.8797007,6.74776408 16.4939437,7.36269366 16.4935387,8.12082746 C16.4935387,8.12107394 16.4935387,8.12132042 16.4935387,8.1215669 Z" id="Path" fill="#000000" opacity="0.2"></path>
                            <path d="M1.37420775,6.74735915 L15.119331,6.74735915 C15.8782923,6.74735915 16.4935387,7.36262324 16.4935387,8.1215669 L16.4935387,21.8666901 C16.4935387,22.6256514 15.8782923,23.2408979 15.119331,23.2408979 L1.37420775,23.2408979 C0.615246479,23.2408979 0,22.6256338 0,21.8666901 L0,8.1215669 C0,7.36262324 0.615264085,6.74735915 1.37420775,6.74735915 Z" id="Path" fill="url(#linearGradient-2)"></path>
                            <path d="M4.29507042,12.5111092 C4.63376761,11.7894894 5.18045775,11.1855986 5.86496479,10.7770423 C6.62301056,10.3430458 7.48610915,10.1266901 8.35924296,10.1517782 C9.16848592,10.1342254 9.96700704,10.3393662 10.667588,10.7447887 C11.3262852,11.1376056 11.8567958,11.713169 12.1947359,12.4016373 C12.5627641,13.1602641 12.7461796,13.9951585 12.7300352,14.8381866 C12.7478697,15.7192254 12.5591549,16.5922007 12.1789965,17.3871831 C11.8330106,18.1002641 11.285669,18.696338 10.6046127,19.1017606 C9.87702465,19.5196127 9.04885563,19.7301408 8.21005282,19.7105282 C7.38352113,19.7304754 6.56739437,19.5230106 5.85072183,19.110757 C5.18632042,18.7174296 4.64915493,18.1412148 4.30332746,17.4508979 C3.9331162,16.7032394 3.74751761,15.8777465 3.76204225,15.0435915 C3.74661972,14.1700528 3.92883803,13.304331 4.29507042,12.5111092 Z M5.96841549,16.582007 C6.14899648,17.0382042 6.45522887,17.4338556 6.8515669,17.7230634 C7.25526408,18.0052113 7.73866197,18.1507746 8.23102113,18.1383979 C8.75536972,18.1591373 9.27221831,18.0086092 9.7034507,17.7095599 C10.0947711,17.4212676 10.3929577,17.0245423 10.5611092,16.5685035 C10.7490845,16.0592077 10.8418486,15.5197007 10.8347535,14.9768838 C10.8405634,14.4288732 10.7533627,13.8838556 10.5768486,13.3650176 C10.4209507,12.8965845 10.1323768,12.4835211 9.74617958,12.1759859 C9.32575704,11.8627817 8.8102993,11.7039261 8.28649648,11.726162 C7.78346831,11.7131338 7.28924296,11.8598415 6.87480634,12.1452465 C6.47176056,12.435669 6.15971831,12.8348239 5.97515845,13.2960387 C5.56573944,14.3532394 5.56360915,15.5248239 5.96915493,16.5835035 L5.96841549,16.582007 Z" id="Shape" fill="#FFFFFF"></path>
                            <polygon id="Path" fill="#50D9FF" points="23.9906162 4.49823944 30.7379754 4.49823944 30.7379754 11.2455986 23.9906162 11.2455986"></polygon>
                        </g>
                    </g>
                </g>
            </g>
        </g>
    </g>
</svg>