<?xml version="1.0" encoding="UTF-8"?>
<svg width="23px" height="27px" viewBox="0 0 23 27" version="1.1" xmlns="http://www.w3.org/2000/svg" xmlns:xlink="http://www.w3.org/1999/xlink">
    <title>logo-apple-color</title>
    <g id="Web" stroke="none" stroke-width="1" fill="none" fill-rule="evenodd">
        <g id="cs_features" transform="translate(-1239.000000, -586.000000)" fill="#1A1A1A" fill-rule="nonzero">
            <g id="Delivery-1" transform="translate(0.000000, 472.000000)">
                <g id="Stats" transform="translate(1005.000000, 79.000000)">
                    <g id="Apple" transform="translate(170.000000, 0.000000)">
                        <g id="logo-apple-color" transform="translate(64.000000, 35.000000)">
                            <path d="M22.2659916,21.041198 C21.857671,21.9845027 21.3743523,22.8528092 20.8143692,23.6511189 C20.0510586,24.7394177 19.4260778,25.4927288 18.9444256,25.9110501 C18.1977819,26.5976957 17.3978061,26.9493514 16.5411652,26.9693513 C15.9261841,26.9693513 15.1845397,26.7943558 14.3212326,26.4393683 C13.4550926,26.0860433 12.6591165,25.9110501 11.9313051,25.9110501 C11.1679949,25.9110501 10.3493528,26.0860433 9.47371291,26.4393683 C8.5967387,26.7943558 7.89026056,26.9793512 7.35011001,26.9976841 C6.52863487,27.0326827 5.709827,26.6710271 4.89251786,25.9110501 C4.37086753,25.4560632 3.71838746,24.6760863 2.936744,23.5711194 C2.09810309,22.3911569 1.40862398,21.0228651 0.868473655,19.4629125 C0.28999123,17.7779634 0,16.1463463 0,14.5667281 C0,12.7572831 0.390988181,11.1966636 1.17413106,9.88886978 C1.78961239,8.83840223 2.60842086,8.00976044 3.63322266,7.4014452 C4.65802537,6.79313087 5.76532517,6.48314034 6.95778931,6.46330717 C7.61026893,6.46330717 8.46591032,6.66513441 9.52921108,7.06178917 C10.5895123,7.4597771 11.2703252,7.66160435 11.5688157,7.66160435 C11.7919755,7.66160435 12.5482859,7.42561107 13.8304138,6.95512598 C15.0428776,6.51880579 16.0661795,6.33814398 16.9044874,6.40930842 C19.1760855,6.59263635 20.8827004,7.48810942 22.0176661,9.10139374 C19.9860613,10.3323566 18.9810915,12.0564708 19.0010907,14.2682369 C19.0194236,15.9910177 19.6444044,17.4246407 20.8727004,18.5629403 C21.4293499,19.0912567 22.0509982,19.4995777 22.7426422,19.7895693 C22.5926489,20.2245559 22.4343203,20.64121 22.2659916,21.041198 Z M17.0561501,0.54015373 C17.0561501,1.890462 16.5628309,3.151241 15.5795281,4.31820497 C14.3928965,5.70549686 12.9576074,6.50713882 11.4011542,6.38064292 C11.3813217,6.21864758 11.3698219,6.0481531 11.3698219,5.86899207 C11.3698219,4.57269756 11.9341383,3.18540635 12.9362751,2.05110734 C13.4365923,1.47679189 14.0729065,0.999256355 14.84455,0.618317212 C15.6145265,0.243061908 16.342838,0.0355376434 17.0278166,0 C17.0478174,0.180515121 17.0561501,0.361041604 17.0561501,0.540136218 L17.0561501,0.54015373 Z" id="path4"></path>
                        </g>
                    </g>
                </g>
            </g>
        </g>
    </g>
</svg>