<?xml version="1.0" encoding="UTF-8"?>
<svg width="32px" height="24px" viewBox="0 0 32 24" version="1.1" xmlns="http://www.w3.org/2000/svg" xmlns:xlink="http://www.w3.org/1999/xlink">
    <title>logo-gmail-color</title>
    <defs>
        <linearGradient x1="0.00388991071%" y1="49.997619%" x2="100.032232%" y2="49.997619%" id="linearGradient-1">
            <stop stop-color="#000000" stop-opacity="0.1" offset="0%"></stop>
            <stop stop-color="#000000" stop-opacity="0.2" offset="100%"></stop>
        </linearGradient>
    </defs>
    <g id="Web" stroke="none" stroke-width="1" fill="none" fill-rule="evenodd">
        <g id="cs_features" transform="translate(-1063.000000, -589.000000)" fill-rule="nonzero">
            <g id="Delivery-1" transform="translate(0.000000, 472.000000)">
                <g id="Stats" transform="translate(1005.000000, 79.000000)">
                    <g id="logo-gmail-color" transform="translate(58.000000, 38.000000)">
                        <path d="M29.5464647,23.9498978 L1.99846014,23.9498978 C0.930272219,23.9498978 0.0307455407,23.0784813 0.0307455407,21.9821832 L0.0307455407,2.08015544 C0.0307455407,1.01196751 0.90216201,0.112440835 1.99846014,0.112440835 L29.5464647,0.112440835 C30.6146526,0.112440835 31.5141793,0.983857304 31.5141793,2.08015544 L31.5141793,21.9821832 C31.5141793,23.0784813 30.6427628,23.9498978 29.5464647,23.9498978 L29.5464647,23.9498978 Z" id="Path" fill="#E3E3E3"></path>
                        <polygon id="Path" fill="#231F20" opacity="0.1" points="3.96617475 23.9498978 15.7443522 14.4767574 15.8286829 13.9707737 3.68507268 5.22849882 3.65696247 23.5282446"></polygon>
                        <path d="M1.99846014,23.9498978 C0.90216201,23.9498978 0.0307455407,23.0784813 0.0307455407,21.9821832 L0.0307455407,2.05204523 C0.0307455407,0.955747096 0.90216201,0.758975635 1.99846014,0.758975635 C3.09475828,0.758975635 3.96617475,0.983857304 3.96617475,2.05204523 L3.96617475,23.9498978 L1.99846014,23.9498978 L1.99846014,23.9498978 Z" id="Path" fill="#D54B3D"></path>
                        <path d="M1.99846014,1.04007772 C3.40397059,1.04007772 3.68507268,1.46173085 3.68507268,2.05204523 L3.68507268,23.6687957 L1.99846014,23.6687957 C1.07082326,23.6687957 0.311847627,22.90982 0.311847627,21.9821832 L0.311847627,2.05204523 C0.311847627,1.43362064 0.592949714,1.04007772 1.99846014,1.04007772 L1.99846014,1.04007772 Z M1.99846014,0.758975635 C0.90216201,0.758975635 0.0307455407,0.983857304 0.0307455407,2.05204523 L0.0307455407,21.9821832 C0.0307455407,23.0784813 0.90216201,23.9498978 1.99846014,23.9498978 L3.96617475,23.9498978 L3.96617475,2.05204523 C3.96617475,0.955747096 3.09475828,0.758975635 1.99846014,0.758975635 L1.99846014,0.758975635 L1.99846014,0.758975635 Z" id="Shape" fill="#D72B27"></path>
                        <path d="M29.5464647,23.9498978 L27.5787501,23.9498978 L27.5787501,1.99582482 C27.5787501,0.899526678 28.4501665,0.758975635 29.5464647,0.758975635 C30.6427628,0.758975635 31.5141793,0.899526678 31.5141793,1.99582482 L31.5141793,22.0102934 C31.5141793,23.0784813 30.6427628,23.9498978 29.5464647,23.9498978 L29.5464647,23.9498978 Z" id="Path" fill="#D54B3D"></path>
                        <path d="M29.5464647,1.04007772 C30.811424,1.04007772 31.2330772,1.2930696 31.2330772,1.99582482 L31.2330772,22.0102934 C31.2330772,22.9379304 30.4741016,23.696906 29.5464647,23.696906 L27.8598522,23.696906 L27.8598522,1.99582482 C27.8598522,1.26495939 28.2815052,1.04007772 29.5464647,1.04007772 L29.5464647,1.04007772 Z M29.5464647,0.758975635 C28.4501665,0.758975635 27.5787501,0.899526678 27.5787501,1.99582482 L27.5787501,23.978008 L29.5464647,23.978008 C30.6427628,23.978008 31.5141793,23.1065916 31.5141793,22.0102934 L31.5141793,1.99582482 C31.5141793,0.899526678 30.6427628,0.758975635 29.5464647,0.758975635 L29.5464647,0.758975635 L29.5464647,0.758975635 Z" id="Shape" fill="#D72B27"></path>
                        <path d="M21.1134021,23.9498978 L0.195439059,2.86945415 L1.29570494,3.31700463 L15.8567931,13.8021125 L31.5141798,2.32088203 L31.5141798,22.0102934 C31.5141798,23.0784813 30.6427628,23.9498978 29.5464647,23.9498978 L21.1134021,23.9498978 Z" id="Path" fill="url(#linearGradient-1)"></path>
                        <path d="M15.7443522,14.4767574 L0.874051801,3.68243734 C0.00263533206,3.03590254 -0.250356547,1.79905336 0.396178253,0.927636887 C1.04271305,0.0562204174 2.30767245,-0.140551043 3.20719913,0.505983757 L15.7724624,9.64180158 L28.4220563,0.393542922 C29.2934728,-0.252991878 30.5303219,-0.0562204174 31.1768568,0.843306261 C31.8233916,1.71472273 31.6266202,2.95157191 30.7270935,3.59810671 L15.7443522,14.4767574 L15.7443522,14.4767574 Z" id="Path" fill="#D54B3D"></path>
                        <path d="M29.5464647,0.281102087 L29.5464647,0.281102087 C30.0805586,0.281102087 30.5865424,0.534093965 30.9238649,0.983857304 C31.4579588,1.74283294 31.2892976,2.78291066 30.5584321,3.34511483 L15.7443522,14.139435 L1.04271305,3.45755567 C0.283737419,2.8953515 0.0869659581,1.82716357 0.621059923,1.09629814 C0.930272219,0.674645009 1.46436619,0.393542922 2.02657035,0.393542922 C2.39200308,0.393542922 2.75743579,0.505983757 3.03853788,0.730865426 L15.575691,9.83857304 L15.7443522,9.95101388 L15.9130134,9.83857304 L28.5344972,0.590314383 C28.8437094,0.393542922 29.1810319,0.281102087 29.5464647,0.281102087 L29.5464647,0.281102087 Z M29.5464647,0 C29.1529217,0 28.7312686,0.112440835 28.3939461,0.365432713 L15.7443522,9.61369137 L3.17908892,0.477873548 C2.8417664,0.22488167 2.42011327,0.112440835 1.99846014,0.112440835 C1.38003555,0.112440835 0.761610967,0.393542922 0.368068045,0.927636887 C-0.250356547,1.79905336 0.00263533206,3.03590254 0.874051801,3.68243734 L15.7443522,14.5048676 L30.6989832,3.59810671 C31.5703997,2.95157191 31.7671712,1.74283294 31.1487465,0.843306261 C30.7552037,0.281102087 30.1648893,0 29.5464647,0 L29.5464647,0 L29.5464647,0 Z" id="Shape" fill="#D72B27"></path>
                    </g>
                </g>
            </g>
        </g>
    </g>
</svg>