<?xml version="1.0" encoding="UTF-8"?>
<svg width="3970px" height="674px" viewBox="0 0 3970 674" version="1.1" xmlns="http://www.w3.org/2000/svg" xmlns:xlink="http://www.w3.org/1999/xlink">
    <title>logo-cs</title>
    <g id="Coresender-icon" stroke="none" stroke-width="1" fill="none" fill-rule="evenodd">
        <g id="logo-coresender" transform="translate(-1287.000000, -757.000000)">
            <g id="logo-cs" transform="translate(1287.000000, 757.000000)">
                <g id="Coresender" transform="translate(799.000000, 110.000000)" fill="#1D1D1B">
                    <path d="M1065.69895,258.454854 L1224.0538,258.454854 C1219.49247,237.329381 1210.08272,221.58899 1195.80064,211.233679 C1181.51856,200.886345 1165.26682,195.700712 1147.05338,195.700712 C1125.5226,195.700712 1107.71586,201.189506 1093.64111,212.159115 C1079.56637,223.14468 1070.25231,238.565955 1065.69895,258.454854 L1065.69895,258.454854 Z M1066.94295,320.578742 C1077.70037,359.51886 1106.88652,378.976952 1154.50143,378.976952 C1185.13892,378.976952 1208.32039,368.637597 1224.0538,347.918997 L1288.64612,385.191734 C1258.00065,429.516933 1212.88172,451.671554 1153.25743,451.671554 C1101.9185,451.671554 1060.73093,436.13061 1029.67877,405.072655 C998.626609,374.006722 983.108504,334.867157 983.108504,287.653959 C983.108504,240.855612 998.411302,201.811782 1029.05677,170.538423 C1059.69426,139.273043 1099.02381,123.636364 1147.05338,123.636364 C1192.59495,123.636364 1230.16216,139.376755 1259.76298,170.857539 C1289.35584,202.330345 1304.16422,241.270463 1304.16422,287.653959 C1304.16422,298.00927 1303.12756,308.986857 1301.0622,320.578742 L1066.94295,320.578742 Z" id="Fill-1"></path>
                    <path d="M1423.11353,219.554795 C1423.11353,227.843831 1428.59221,234.577176 1439.56553,239.746854 C1450.53885,244.932487 1463.88068,249.479889 1479.62292,253.412992 C1495.35719,257.346096 1511.08349,262.316326 1526.82574,268.323683 C1542.56001,274.33104 1555.90981,284.375213 1566.88313,298.456202 C1577.84847,312.537191 1583.34311,330.136433 1583.34311,351.269884 C1583.34311,383.165518 1571.43674,407.705531 1547.63198,424.881944 C1523.81126,442.074313 1494.11313,450.674487 1458.50567,450.674487 C1394.74718,450.674487 1351.27657,426.030761 1328.09384,376.735333 L1397.65,337.595767 C1406.75722,364.529149 1427.0451,377.971907 1458.50567,377.971907 C1487.07936,377.971907 1501.37019,369.076551 1501.37019,351.269884 C1501.37019,342.988826 1495.86758,336.263458 1484.91021,331.077825 C1473.92892,325.900169 1460.57911,321.241077 1444.84484,317.092571 C1429.11057,312.96002 1413.38428,307.782364 1397.65,301.559604 C1381.90776,295.3528 1368.55795,285.516052 1357.59261,272.049361 C1346.61929,258.598626 1341.13263,241.709417 1341.13263,221.413645 C1341.13263,190.770541 1352.41697,166.645379 1374.97766,149.038159 C1397.53836,131.438917 1425.59369,122.639296 1459.13567,122.639296 C1484.38388,122.639296 1507.35926,128.327537 1528.0698,139.719975 C1548.7644,151.12039 1565.1207,167.36339 1577.13074,188.488862 L1508.81865,225.7616 C1498.87408,204.644105 1482.3184,194.089346 1459.13567,194.089346 C1448.77642,194.089346 1440.19554,196.363047 1433.36114,200.918427 C1426.52674,205.473806 1423.11353,211.688588 1423.11353,219.554795" id="Fill-3"></path>
                    <path d="M1689.86318,258.454854 L1848.21802,258.454854 C1843.65669,237.329381 1834.24694,221.58899 1819.95689,211.233679 C1805.68278,200.886345 1789.43104,195.700712 1771.2176,195.700712 C1749.68683,195.700712 1731.88008,201.189506 1717.80533,212.159115 C1703.73059,223.14468 1694.41654,238.565955 1689.86318,258.454854 L1689.86318,258.454854 Z M1691.10718,320.578742 C1701.86459,359.51886 1731.05075,378.976952 1778.66565,378.976952 C1809.30314,378.976952 1832.48461,368.637597 1848.21802,347.918997 L1912.80237,385.191734 C1882.16487,429.516933 1837.04594,451.671554 1777.42165,451.671554 C1726.08272,451.671554 1684.89515,436.13061 1653.84299,405.072655 C1622.79083,374.006722 1607.27273,334.867157 1607.27273,287.653959 C1607.27273,240.855612 1622.57552,201.811782 1653.22099,170.538423 C1683.85848,139.273043 1723.18005,123.636364 1771.2176,123.636364 C1816.7512,123.636364 1854.31841,139.376755 1883.92721,170.857539 C1913.52006,202.330345 1928.32845,241.270463 1928.32845,287.653959 C1928.32845,298.00927 1927.29178,308.986857 1925.22642,320.578742 L1691.10718,320.578742 Z" id="Fill-5"></path>
                    <path d="M2132.9567,123.636364 C2166.91232,123.636364 2194.97996,135.026865 2217.14366,157.775985 C2239.29938,180.541046 2250.38123,211.994454 2250.38123,252.128238 L2250.38123,442.697947 L2170.23129,442.697947 L2170.23129,262.060054 C2170.23129,241.375413 2164.6385,225.545086 2153.46091,214.577045 C2142.26737,203.616975 2127.36391,198.124984 2108.72662,198.124984 C2088.00699,198.124984 2071.44405,204.541607 2059.02184,217.374852 C2046.59166,230.200127 2040.37657,249.442024 2040.37657,275.100544 L2040.37657,442.697947 L1960.2346,442.697947 L1960.2346,132.32471 L2040.37657,132.32471 L2040.37657,167.086066 C2059.84361,138.119598 2090.70365,123.636364 2132.9567,123.636364" id="Fill-7"></path>
                    <path d="M2386.85757,350.69467 C2403.20214,367.06132 2423.78625,375.232675 2448.60991,375.232675 C2473.43358,375.232675 2493.91409,367.06132 2510.0435,350.69467 C2526.18087,334.32802 2534.25354,313.309124 2534.25354,287.622022 C2534.25354,261.93492 2526.18087,240.908043 2510.0435,224.533414 C2493.91409,208.182723 2473.43358,199.995408 2448.60991,199.995408 C2423.78625,199.995408 2403.20214,208.182723 2386.85757,224.533414 C2370.513,240.908043 2362.3447,261.93492 2362.3447,287.622022 C2362.3447,313.309124 2370.513,334.32802 2386.85757,350.69467 L2386.85757,350.69467 Z M2534.25354,7.97653959 L2614.31085,7.97653959 L2614.31085,442.97353 L2534.25354,442.97353 L2534.25354,406.314149 C2510.66509,436.557739 2477.15513,451.671554 2433.71572,451.671554 C2391.91793,451.671554 2356.23242,435.831574 2326.65919,404.135653 C2297.07002,372.439732 2282.28739,333.593875 2282.28739,287.622022 C2282.28739,241.634209 2297.07002,202.796332 2326.65919,171.100411 C2356.23242,139.39651 2391.91793,123.556529 2433.71572,123.556529 C2477.15513,123.556529 2510.66509,138.686304 2534.25354,168.929895 L2534.25354,7.97653959 Z" id="Fill-9"></path>
                    <path d="M2727.81039,258.454854 L2886.16524,258.454854 C2881.6039,237.329381 2872.19416,221.58899 2857.9041,211.233679 C2843.63,200.886345 2827.37825,195.700712 2809.16481,195.700712 C2787.63404,195.700712 2769.82729,201.189506 2755.75255,212.159115 C2741.6778,223.14468 2732.36375,238.565955 2727.81039,258.454854 L2727.81039,258.454854 Z M2729.05439,320.578742 C2739.8118,359.51886 2768.99796,378.976952 2816.61287,378.976952 C2847.25036,378.976952 2870.43182,368.637597 2886.16524,347.918997 L2950.74958,385.191734 C2920.11209,429.516933 2874.99316,451.671554 2815.36887,451.671554 C2764.02993,451.671554 2722.84236,436.13061 2691.79021,405.072655 C2660.73805,374.006722 2645.21994,334.867157 2645.21994,287.653959 C2645.21994,240.855612 2660.52274,201.811782 2691.16821,170.538423 C2721.8057,139.273043 2761.12727,123.636364 2809.16481,123.636364 C2854.69841,123.636364 2892.26562,139.376755 2921.87442,170.857539 C2951.46727,202.330345 2966.27566,241.270463 2966.27566,287.653959 C2966.27566,298.00927 2965.23899,308.986857 2963.17363,320.578742 L2729.05439,320.578742 Z" id="Fill-11"></path>
                    <path d="M3076.29071,185.312656 C3083.74604,165.426587 3096.05732,150.506047 3113.2325,140.559021 C3130.41566,130.604012 3149.56033,125.630499 3170.67449,125.630499 L3170.67449,215.153735 C3146.2433,212.263828 3124.4195,217.237341 3105.1632,230.074274 C3085.91487,242.935156 3076.29071,264.274162 3076.29071,294.115241 L3076.29071,442.697947 L2996.18768,442.697947 L2996.18768,131.849386 L3076.29071,131.849386 L3076.29071,185.312656 Z" id="Fill-13"></path>
                    <path d="M532.92137,350.155132 C548.879386,366.302004 568.886809,374.383417 592.943639,374.383417 C616.984495,374.383417 637.111723,366.302004 653.277402,350.155132 C669.451067,334.00826 677.533906,313.497584 677.533906,288.647038 C677.533906,263.796491 669.451067,243.293793 653.277402,227.146921 C637.111723,210.992072 616.984495,202.918636 592.943639,202.918636 C568.886809,202.918636 548.879386,210.992072 532.92137,227.146921 C516.955366,243.293793 508.976358,263.796491 508.976358,288.647038 C508.976358,313.497584 516.955366,334.00826 532.92137,350.155132 M709.87325,405.137464 C677.941243,436.824903 638.972693,452.668622 592.943639,452.668622 C546.914585,452.668622 508.041879,436.824903 476.325521,405.137464 C444.601176,373.450026 428.739003,334.622543 428.739003,288.647038 C428.739003,242.671532 444.601176,203.844049 476.325521,172.156611 C508.041879,140.47715 546.914585,124.633431 592.943639,124.633431 C638.972693,124.633431 677.941243,140.47715 709.87325,172.156611 C741.805257,203.844049 757.771261,242.671532 757.771261,288.647038 C757.771261,334.622543 741.805257,373.450026 709.87325,405.137464" id="Fill-15"></path>
                    <path d="M869.776128,186.311226 C877.231807,166.424656 889.543644,151.495758 906.727588,141.556464 C923.903558,131.601204 943.049103,126.627566 964.164223,126.627566 L964.164223,216.153056 C939.731924,213.255094 917.907119,218.228732 898.657912,231.073971 C879.400731,243.935177 869.776128,265.27472 869.776128,295.108567 L869.776128,443.695015 L789.677419,443.695015 L789.677419,132.84661 L869.776128,132.84661 L869.776128,186.311226 Z" id="Fill-17"></path>
                    <path d="M225.949419,452.668622 C160.556643,452.668622 106.554198,430.902713 63.9420835,387.37888 C21.3140278,343.855047 2.84217094e-14,290.16687 2.84217094e-14,226.330319 C2.84217094e-14,162.07857 21.3140278,108.302563 63.9420835,64.9783438 C106.554198,21.6621094 160.556643,1.70530257e-13 225.949419,1.70530257e-13 C265.261605,1.70530257e-13 301.568784,9.23015058 334.886898,27.6664981 C368.18907,46.1188146 394.16604,71.1025008 412.785924,102.593603 L338.920144,145.49464 C328.159509,126.0203 312.855495,110.785761 292.984189,99.799007 C273.120854,88.8202379 250.778588,83.3188765 225.949419,83.3188765 C183.743818,83.3188765 149.700358,96.5892141 123.842951,123.121905 C97.9696022,149.646611 85.0488695,184.044092 85.0488695,226.330319 C85.0488695,268.209332 97.9696022,302.4072 123.842951,328.931906 C149.700358,355.456612 183.743818,368.72695 225.949419,368.72695 C250.778588,368.72695 273.216504,363.233573 293.303023,352.246819 C313.365629,341.26805 328.573992,326.241109 338.920144,307.165997 L412.785924,350.067034 C394.16604,381.58209 368.300662,406.557792 335.197761,424.994139 C302.086889,443.45444 265.676089,452.668622 225.949419,452.668622" id="Fill-19"></path>
                </g>
                <g id="Group-5">
                    <path d="M674,337 C674,523.119483 523.119483,674 337,674 C150.880517,674 0,523.119483 0,337 C0,150.880517 150.880517,0 337,0 C523.119483,0 674,150.880517 674,337" id="Fill-1" fill="#C5161C"></path>
                    <path d="M351.937525,523.298655 C418.365842,443.014022 469.595458,352.450888 504.401942,256.237388 C508.238125,245.621888 501.644158,234.191972 490.528775,232.214905 C389.928658,214.264038 286.020325,213.326055 183.392592,230.647855 C169.783408,232.945072 163.869058,249.143538 172.636675,259.809588 C197.934142,290.555222 221.316325,323.446422 242.783225,358.191122 C244.833308,361.504955 248.950325,362.875422 252.550608,361.403855 L341.029958,325.277455 C349.808808,321.727722 356.588125,333.460938 349.123575,339.296655 L273.641192,397.816705 C270.568875,400.198172 269.692675,404.433138 271.523708,407.859305 C290.788875,443.890222 307.380508,480.673772 321.292992,518.002138 C326.117708,530.942938 343.130592,533.947855 351.937525,523.298655" id="Fill-3" fill="#FFFFFF"></path>
                </g>
            </g>
        </g>
    </g>
</svg>